<?xml version="1.0"?>
<svg xmlns="http://www.w3.org/2000/svg" width="43" height="42" viewBox="0 0 43 42" fill="none">
<path fill-rule="evenodd" clip-rule="evenodd" d="M26.1627 0.103264C26.5386 -0.0257554 26.9455 -0.0340829 27.3265 0.0794458C27.7074 0.192974 28.0433 0.422686 28.2873 0.736474L41.6381 17.9018C41.8986 18.2366 42.04 18.6487 42.04 19.0729C42.04 19.497 41.8986 19.9091 41.6381 20.2439L28.2873 37.4092C28.0432 37.7227 27.7074 37.9521 27.3266 38.0654C26.9458 38.1788 26.5391 38.1704 26.1634 38.0414C25.7876 37.9124 25.4615 37.6693 25.2306 37.3461C24.9996 37.0228 24.8754 36.6355 24.8753 36.2382V28.6282C14.6161 28.8418 9.68775 30.7892 7.21213 32.9062C4.85857 34.9184 4.42753 37.2853 3.97932 39.7647L3.86298 40.4036C3.77739 40.8608 3.52769 41.271 3.16084 41.5569C2.794 41.8429 2.3353 41.9849 1.87105 41.9563C1.4068 41.9277 0.969005 41.7305 0.64002 41.4017C0.311035 41.0729 0.113544 40.6352 0.0847016 40.171C-0.243347 34.9298 0.248726 27.3351 3.95072 20.982C7.54399 14.8159 14.0134 10.0744 24.8753 9.57852V1.90753C24.8751 1.51015 24.9991 1.12266 25.23 0.79919C25.4608 0.475716 25.7868 0.232412 26.1627 0.103264Z" fill="#04315D"/>
</svg>
